<svg data-v-423bf9ae="" xmlns="http://www.w3.org/2000/svg" viewBox="0 0 315 90" class="iconLeft"><!----><!----><!----><g data-v-423bf9ae="" id="a98ce800-d775-4bea-8b84-0a716e0bc63b" fill="black" transform="matrix(6.430868219789529,0,0,6.430868219789529,108.97971859165919,-7.122186567216055)"><path d="M1.75 3.66L0.49 4.19L0.49 12.04L0.49 12.04Q0.49 12.61 0.36 12.71L0.36 12.71L4.55 12.71L4.55 12.71Q5.50 11.98 6.52 10.86L6.52 10.86L6.52 10.86Q7.54 9.73 7.57 8.04L7.57 8.04L7.57 8.04Q7.59 6.34 6.27 4.85L6.27 4.85L6.27 4.85Q4.94 3.36 1.75 3.66L1.75 3.66ZM1.84 4.78L1.84 4.78Q4.30 4.62 5.17 5.60L5.17 5.60L5.17 5.60Q6.05 6.58 6.27 7.92L6.27 7.92L6.27 7.92Q6.48 9.26 6.05 10.21L6.05 10.21L6.05 10.21Q5.63 11.17 4.37 11.36L4.37 11.36L1.85 11.37L1.84 4.78ZM11.49 6.51L11.49 6.51L11.49 6.51Q10.41 6.35 9.47 7.19L9.47 7.19L9.47 7.19Q8.53 8.03 8.27 9.15L8.27 9.15L8.27 9.15Q8.00 10.27 8.35 11.09L8.35 11.09L8.35 11.09Q8.70 11.91 9.28 12.28L9.28 12.28L9.28 12.28Q9.86 12.66 10.66 12.71L10.66 12.71L10.66 12.71Q11.45 12.76 12.22 12.08L12.22 12.08L12.22 12.08Q12.99 11.41 13.45 10.54L13.45 10.54L13.35 10.47L13.35 10.47Q12.30 11.57 11.22 11.52L11.22 11.52L11.22 11.52Q10.14 11.47 9.80 10.85L9.80 10.85L11.74 9.78L11.74 9.78Q13.19 8.81 12.89 7.75L12.89 7.75L12.89 7.75Q12.58 6.68 11.49 6.51ZM9.28 8.16L9.28 8.16L9.28 8.16Q9.52 7.66 10.13 7.40L10.13 7.40L10.13 7.40Q10.74 7.14 11.29 7.68L11.29 7.68L11.29 7.68Q11.83 8.21 11.67 8.90L11.67 8.90L11.67 8.90Q11.50 9.60 9.59 10.57L9.59 10.57L9.59 10.57Q9.28 10.04 9.16 9.35L9.16 9.35L9.16 9.35Q9.04 8.67 9.28 8.16ZM17.48 6.50L17.48 6.50L17.48 6.50Q16.13 6.27 15.21 7.11L15.21 7.11L15.21 7.11Q14.28 7.96 14.09 9.11L14.09 9.11L14.09 9.11Q13.90 10.27 14.32 11.14L14.32 11.14L14.32 11.14Q14.74 12.02 15.44 12.37L15.44 12.37L15.44 12.37Q16.15 12.73 16.86 12.74L16.86 12.74L16.86 12.74Q17.58 12.76 18.24 12.16L18.24 12.16L18.24 12.16Q18.90 11.57 19.35 10.54L19.35 10.54L19.25 10.47L19.25 10.47Q18.31 11.42 17.45 11.47L17.45 11.47L17.45 11.47Q16.58 11.52 16.02 11.17L16.02 11.17L16.02 11.17Q15.47 10.82 15.12 10.13L15.12 10.13L15.12 10.13Q14.78 9.44 14.98 8.56L14.98 8.56L14.98 8.56Q15.19 7.67 15.84 7.39L15.84 7.39L15.84 7.39Q16.49 7.12 17.09 7.45L17.09 7.45L17.09 7.45Q17.70 7.78 17.95 8.78L17.95 8.78L19.15 7.99L19.15 7.99Q18.83 6.73 17.48 6.50ZM21.46 3.44L20.19 3.95L20.19 12.73L21.51 12.17L21.51 8.05L21.51 8.05Q22.16 7.22 23.15 7.44L23.15 7.44L23.15 7.44Q24.14 7.66 24.09 8.69L24.09 8.69L24.09 12.77L25.39 12.24L25.39 8.32L25.39 8.32Q25.33 6.56 23.90 6.47L23.90 6.47L23.90 6.47Q22.47 6.38 21.45 7.73L21.45 7.73L21.46 3.44ZM29.44 6.43L29.44 6.43L29.44 6.43Q28.52 6.36 27.50 6.88L27.50 6.88L27.50 6.88Q26.49 7.40 26.61 8.65L26.61 8.65L28.18 7.95L28.18 7.95Q28.06 7.10 28.81 6.96L28.81 6.96L28.81 6.96Q29.55 6.82 29.97 7.21L29.97 7.21L29.97 7.21Q30.39 7.61 30.32 8.80L30.32 8.80L30.32 8.80Q29.87 8.50 29.25 8.42L29.25 8.42L29.25 8.42Q28.63 8.33 27.62 8.85L27.62 8.85L27.62 8.85Q26.61 9.37 26.36 10.38L26.36 10.38L26.36 10.38Q26.11 11.38 26.88 12.06L26.88 12.06L26.88 12.06Q27.66 12.73 28.38 12.70L28.38 12.70L28.38 12.70Q29.11 12.67 29.47 12.39L29.47 12.39L29.47 12.39Q29.83 12.10 30.34 11.57L30.34 11.57L30.34 11.57Q30.34 12.44 30.54 12.76L30.54 12.76L31.90 12.04L31.90 12.04Q31.55 11.63 31.62 11.02L31.62 11.02L31.62 8.16L31.62 8.16Q31.65 7.49 31.00 6.99L31.00 6.99L31.00 6.99Q30.35 6.50 29.44 6.43ZM30.37 9.32L30.36 9.68L30.36 11.18L30.36 11.18Q29.20 12.11 28.25 11.55L28.25 11.55L28.25 11.55Q27.30 10.99 27.18 10.16L27.18 10.16L27.18 10.16Q27.05 9.34 28.00 9.31L28.00 9.31L28.00 9.31Q28.94 9.28 29.74 10.00L29.74 10.00L30.37 9.32Z"></path></g><!----><g data-v-423bf9ae="" id="852804f0-44bf-4df1-9b97-e1a7dc13ff1e" transform="matrix(2.852072528086791,0,0,2.852072528086791,0.3618419448213217,-0.41116010653409063)" stroke="none" fill="black"><path d="M16 23.787L8.102 16 16 8.213 23.898 16 16 23.787zM9.525 16L16 22.383 22.475 16 16 9.617 9.525 16z"></path><path d="M15.915 31.778L-.005 16.084 16.085.222l15.92 15.694-16.09 15.862zM1.419 16.084l14.496 14.29 14.666-14.458-14.496-14.29L1.419 16.084z"></path><path d="M15.5.924h1v30.152h-1z"></path></g><!----></svg>